<svg xmlns="http://www.w3.org/2000/svg" xmlns:xlink="http://www.w3.org/1999/xlink" fill="#CDCDCD" viewBox="0 0 50 50"><path fill="#CDCDCD" d="M25 2C12.309295 2 2 12.309295 2 25C2 37.690705 12.309295 48 25 48C37.690705 48 48 37.690705 48 25C48 12.309295 37.690705 2 25 2 z M 25 4C36.609824 4 46 13.390176 46 25C46 30.734684 43.70237 35.92161 39.984375 39.708984C38.149495 38.368708 35.900869 37.727279 33.994141 37.085938C32.9192 36.724373 31.94969 36.367373 31.242188 35.960938C30.595177 35.589253 30.25389 35.198059 30.044922 34.755859C31.639096 34.547473 33.194675 34.295157 34.320312 33.884766C35.008581 33.633833 35.589628 33.35735 36.064453 32.998047C36.539274 32.638743 37 32.125052 37 31.386719 A 1.0001 1.0001 0 0 0 36.671875 30.646484C36.586155 30.568804 36.368753 30.18504 36.244141 29.509766C36.119529 28.834491 36.06099 27.913889 36.044922 26.861328C36.012782 24.756206 36.136941 22.119947 36.025391 19.53125C35.913838 16.942553 35.589773 14.387467 34.494141 12.361328C33.437859 10.407963 31.467196 9.0613797 28.736328 9.0566406C27.843392 8.4392561 26.641902 8.0214844 25.091797 8.0214844 A 1.0001 1.0001 0 0 0 25.019531 8.0234375C21.288884 8.2915844 18.701795 9.8062454 17.091797 11.955078C15.481798 14.103911 14.816036 16.789064 14.496094 19.443359C14.176151 22.097655 14.207833 24.753389 14.115234 26.869141C14.068934 27.927017 13.988716 28.849673 13.84375 29.53125C13.698784 30.212827 13.474955 30.607312 13.335938 30.730469 A 1.0001 1.0001 0 0 0 13 31.478516C13 32.203139 13.442412 32.840444 13.955078 33.222656C14.467744 33.604868 15.074778 33.845095 15.771484 34.052734C16.896563 34.388041 18.389157 34.579278 19.898438 34.775391C19.694492 35.235982 19.335907 35.62895 18.679688 36.005859C17.982125 36.406514 17.026309 36.758459 15.962891 37.113281C14.0766 37.742665 11.846122 38.371842 10.015625 39.708984C6.2976298 35.92161 4 30.734684 4 25C4 13.390176 13.390176 4 25 4 z M 25.126953 10.027344C26.468786 10.036044 27.449701 10.461522 27.832031 10.789062 A 1.0001 1.0001 0 0 0 28.517578 11.029297C30.80442 10.948277 31.909648 11.783732 32.736328 13.3125C33.563008 14.841268 33.921146 17.152759 34.027344 19.617188C34.133541 22.081615 34.011242 24.686544 34.044922 26.892578C34.061762 27.995595 34.115922 28.998271 34.277344 29.873047C34.382311 30.441864 34.571206 30.948353 34.833984 31.414062C34.608655 31.580852 34.192812 31.802404 33.634766 32.005859C32.496803 32.420744 30.811148 32.78182 28.908203 32.958984 A 1.0001 1.0001 0 0 0 28 33.953125L28 35 A 1.0001 1.0001 0 0 0 28.066406 35.357422C28.472217 36.418589 29.309347 37.155232 30.246094 37.693359C31.182841 38.231487 32.25341 38.611736 33.355469 38.982422C35.167236 39.591823 37.048759 40.194657 38.472656 41.109375C34.827262 44.160311 30.132584 46 25 46C19.867416 46 15.172738 44.160311 11.527344 41.109375C12.944526 40.198593 14.803252 39.607839 16.595703 39.009766C17.68641 38.645838 18.746436 38.274017 19.675781 37.740234C20.605126 37.206452 21.437465 36.468345 21.841797 35.410156 A 1.0001 1.0001 0 0 0 21.894531 35.21875C21.995484 34.615253 22 34.228125 22 33.953125 A 1.0001 1.0001 0 0 0 21.117188 32.960938C19.207045 32.733705 17.485883 32.47769 16.341797 32.136719C15.769754 31.966233 15.348662 31.76696 15.150391 31.619141C14.985393 31.496129 15.018829 31.506534 15.025391 31.501953C15.333477 31.015374 15.672539 30.550215 15.800781 29.947266C15.988792 29.063304 16.065049 28.059062 16.113281 26.957031C16.209741 24.752971 16.183611 22.160595 16.482422 19.681641C16.781229 17.202686 17.410295 14.866777 18.693359 13.154297C19.970732 11.449414 21.872296 10.270557 25.126953 10.027344 z"/></svg>