<svg xmlns="http://www.w3.org/2000/svg" width="36" height="50" fill="none" viewBox="0 0 36 50"><mask id="path-1-inside-1" fill="#fff"><path d="M18 50C13.2261 50 8.64773 48.113 5.27208 44.7542C1.89642 41.3953 0 36.8397 0 32.0896C0 20.1493 18 0 18 0C18 0 36 20.1493 36 32.0896C36 36.8397 34.1036 41.3953 30.7279 44.7542C27.3523 48.113 22.7739 50 18 50V50Z"/></mask><path fill="#fff" d="M18 50C13.2261 50 8.64773 48.113 5.27208 44.7542C1.89642 41.3953 0 36.8397 0 32.0896C0 20.1493 18 0 18 0C18 0 36 20.1493 36 32.0896C36 36.8397 34.1036 41.3953 30.7279 44.7542C27.3523 48.113 22.7739 50 18 50V50Z"/><path fill="#E30556" d="M0 32.0896L-48 32.0896L0 32.0896ZM18 0L53.7965 -31.9782L18 -72.049L-17.7965 -31.9782L18 0ZM18 2C25.8794 2 33.4842 5.11227 39.1285 10.7285L-28.5843 78.7798C-16.1887 91.1138 0.572767 98 18 98L18 2ZM39.1285 10.7285C44.7808 16.3527 48 24.0318 48 32.0896L-48 32.0896C-48 49.6476 -40.988 66.4378 -28.5843 78.7798L39.1285 10.7285ZM48 32.0896C48 39.7012 45.5761 43.8884 46.2044 42.5601C46.3815 42.1855 47.0851 40.8922 48.5237 38.8046C49.8559 36.8714 51.2878 35.0217 52.4312 33.6153C52.982 32.9379 53.4161 32.4244 53.6724 32.1253C53.7994 31.9771 53.879 31.886 53.9031 31.8585C53.9151 31.8448 53.9129 31.8474 53.8956 31.867C53.8869 31.8768 53.8744 31.8909 53.8579 31.9094C53.8497 31.9186 53.8405 31.929 53.8303 31.9405C53.8251 31.9462 53.8198 31.9522 53.8142 31.9585C53.8114 31.9616 53.8069 31.9666 53.8055 31.9682C53.8011 31.9732 53.7965 31.9782 18 0C-17.7965 -31.9782 -17.8012 -31.973 -17.806 -31.9677C-17.8076 -31.9658 -17.8124 -31.9604 -17.8158 -31.9567C-17.8225 -31.9491 -17.8295 -31.9413 -17.8368 -31.9331C-17.8514 -31.9167 -17.8671 -31.8991 -17.884 -31.8801C-17.9178 -31.8421 -17.9561 -31.7989 -17.9988 -31.7506C-18.0843 -31.6541 -18.1875 -31.5369 -18.3074 -31.4001C-18.547 -31.1266 -18.8541 -30.7732 -19.2193 -30.347C-19.9474 -29.4976 -20.9195 -28.3437 -22.0562 -26.9455C-24.2878 -24.2008 -27.3559 -20.2669 -30.5237 -15.6703C-33.5851 -11.228 -37.3815 -5.24519 -40.5794 1.51644C-43.3261 7.32427 -48 18.5077 -48 32.0896H48ZM18 0C-17.7965 31.9782 -17.8011 31.9732 -17.8055 31.9682C-17.8069 31.9666 -17.8114 31.9616 -17.8142 31.9585C-17.8198 31.9522 -17.8251 31.9462 -17.8303 31.9405C-17.8405 31.929 -17.8497 31.9186 -17.8579 31.9094C-17.8744 31.8909 -17.8869 31.8768 -17.8956 31.867C-17.9129 31.8474 -17.9151 31.8448 -17.9031 31.8585C-17.879 31.886 -17.7994 31.9771 -17.6724 32.1253C-17.4161 32.4244 -16.982 32.9379 -16.4312 33.6153C-15.2878 35.0217 -13.8559 36.8714 -12.5237 38.8046C-11.0851 40.8922 -10.3815 42.1855 -10.2044 42.5601C-9.57614 43.8884 -12 39.7012 -12 32.0896H84C84 18.5077 79.3261 7.32427 76.5794 1.51644C73.3815 -5.24519 69.5851 -11.228 66.5237 -15.6703C63.3559 -20.2669 60.2878 -24.2008 58.0562 -26.9455C56.9195 -28.3437 55.9474 -29.4976 55.2193 -30.347C54.8541 -30.7732 54.547 -31.1266 54.3074 -31.4001C54.1875 -31.5369 54.0843 -31.6541 53.9988 -31.7506C53.9561 -31.7989 53.9178 -31.8421 53.884 -31.8801C53.8671 -31.8991 53.8514 -31.9167 53.8368 -31.9331C53.8295 -31.9413 53.8225 -31.9491 53.8158 -31.9567C53.8124 -31.9604 53.8076 -31.9658 53.806 -31.9677C53.8012 -31.973 53.7965 -31.9782 18 0ZM-12 32.0896C-12 24.0319 -8.78084 16.3528 -3.12845 10.7285L64.5843 78.7798C76.988 66.4378 84 49.6475 84 32.0896H-12ZM-3.12845 10.7285C2.51585 5.11226 10.1206 2 18 2V98C35.4272 98 52.1887 91.1138 64.5843 78.7798L-3.12845 10.7285Z" mask="url(#path-1-inside-1)"/></svg>